<svg xmlns="http://www.w3.org/2000/svg" width="400" height="340">
  <path d="M61.44 279.796l-25.344 45 339.282-.719-25.094-44.28H61.44z" fill="none" stroke="#000" stroke-width="2"/>
  <text x="167.346" y="1020.588" transform="translate(0 -712.362)">Functional</text>
  <text x="176.714" y="970.498" transform="translate(0 -712.362)">Reliable</text>
  <text x="181.432" y="920.498" transform="translate(0 -712.362)">Usable</text>
  <text x="160.569" y="871.146" transform="translate(0 -712.362)">Pleasureable</text>
  <path d="M205.456 24.077l-84.844 150.72h170.25l-85.406-150.72zM89.456 229.796l-25.313 45h283.188l-25.5-45H89.456zM117.706 179.796l-25.344 45h226.75l-25.5-45H117.706z" fill="none" stroke="#000" stroke-width="2"/>
  <path d="M116.096 174.783h-25v-150h110M76.096 99.783h15" fill="none" stroke="#000"/>
  <text x="17.096" y="816.329" transform="translate(0 -712.362)">Missing</text>
</svg>
