<svg xmlns="http://www.w3.org/2000/svg" width="540" height="495">
  <path fill="none" stroke="#000" stroke-linejoin="round" d="M40 25h90v20H40z"/>
  <text y="647.36" x="25" style="text-align:start;line-height:123.00000191%;-inkscape-font-specification:Myriad Pro" font-size="14" font-weight="400" letter-spacing="0" word-spacing="0" font-family="Myriad Pro" transform="translate(20 -607.36)">
    <tspan y="647.36" x="25">Blacklight</tspan>
  </text>
  <text y="672.36" x="25" style="text-align:start;line-height:123.00000191%;-inkscape-font-specification:Myriad Pro" font-size="14" font-weight="400" letter-spacing="0" word-spacing="0" font-family="Myriad Pro" transform="translate(20 -607.36)">
    <tspan y="672.36" x="25">Om</tspan>
  </text>
  <path fill="none" stroke="#000" stroke-linejoin="round" d="M40 50h90v20H40z"/>
  <text y="722.36" x="25" style="text-align:start;line-height:123.00000191%;-inkscape-font-specification:Myriad Pro" font-size="14" font-weight="400" letter-spacing="0" word-spacing="0" font-family="Myriad Pro" transform="translate(20 -607.36)">
    <tspan y="722.36" x="25">Rubydora</tspan>
  </text>
  <path fill="none" stroke="#000" stroke-linejoin="round" d="M40 100h90v20H40z"/>
  <text y="697.36" x="25" style="text-align:start;line-height:123.00000191%;-inkscape-font-specification:Myriad Pro" font-size="14" font-weight="400" letter-spacing="0" word-spacing="0" font-family="Myriad Pro" transform="translate(20 -607.36)">
    <tspan y="697.36" x="25">ActiveFedora</tspan>
  </text>
  <path fill="none" stroke="#000" stroke-linejoin="round" d="M40 75h90v20H40z"/>
  <text y="832.253" x="25.946" style="text-align:start;line-height:123.00000191%;-inkscape-font-specification:Myriad Pro" font-size="14" font-weight="400" letter-spacing="0" word-spacing="0" font-family="Myriad Pro" transform="translate(0 -687.36)">
    <tspan y="832.253" x="25.946">Serializer</tspan>
  </text>
  <path fill="none" stroke="#000" stroke-linejoin="round" d="M20 130h65v20H20z"/>
  <text y="825.358" x="269.924" style="text-align:center;line-height:95.99999785%;-inkscape-font-specification:Myriad Pro" font-size="14" font-weight="400" letter-spacing="0" word-spacing="0" text-anchor="middle" font-family="Myriad Pro" transform="translate(-145 -679.86)">
    <tspan y="825.358" x="269.924">Content</tspan><tspan y="838.798" x="269.924">Model</tspan>
  </text>
  <path fill="none" stroke="#000" stroke-linejoin="round" d="M95 130h60v35H95z"/>
  <text y="825.358" x="269.924" style="text-align:center;line-height:95.99999785%;-inkscape-font-specification:Myriad Pro" font-size="14" font-weight="400" letter-spacing="0" word-spacing="0" text-anchor="middle" font-family="Myriad Pro" transform="translate(-145 -639.86)">
    <tspan y="825.358" x="269.924">Content</tspan><tspan y="838.798" x="269.924">Model</tspan>
  </text>
  <path fill="none" stroke="#000" stroke-linejoin="round" d="M95 170h60v35H95z"/>
  <path fill="none" stroke="#000" stroke-linejoin="round" stroke-dasharray="1,1" d="M10 15h155v200H10z"/>
  <path fill="none" stroke="#000" stroke-linejoin="round" d="M225 25h90v20h-90z"/>
  <text y="647.36" x="25" style="text-align:start;line-height:123.00000191%;-inkscape-font-specification:Myriad Pro" font-size="14" font-weight="400" letter-spacing="0" word-spacing="0" font-family="Myriad Pro" transform="translate(205 -607.36)">
    <tspan y="647.36" x="25">Blacklight</tspan>
  </text>
  <text y="672.36" x="25" style="text-align:start;line-height:123.00000191%;-inkscape-font-specification:Myriad Pro" font-size="14" font-weight="400" letter-spacing="0" word-spacing="0" font-family="Myriad Pro" transform="translate(205 -607.36)">
    <tspan y="672.36" x="25">Om</tspan>
  </text>
  <path fill="none" stroke="#000" stroke-linejoin="round" d="M225 50h90v20h-90z"/>
  <text y="722.36" x="25" style="text-align:start;line-height:123.00000191%;-inkscape-font-specification:Myriad Pro" font-size="14" font-weight="400" letter-spacing="0" word-spacing="0" font-family="Myriad Pro" transform="translate(205 -607.36)">
    <tspan y="722.36" x="25">Rubydora</tspan>
  </text>
  <path fill="none" stroke="#000" stroke-linejoin="round" d="M225 100h90v20h-90z"/>
  <text y="697.36" x="25" style="text-align:start;line-height:123.00000191%;-inkscape-font-specification:Myriad Pro" font-size="14" font-weight="400" letter-spacing="0" word-spacing="0" font-family="Myriad Pro" transform="translate(205 -607.36)">
    <tspan y="697.36" x="25">ActiveFedora</tspan>
  </text>
  <path fill="none" stroke="#000" stroke-linejoin="round" d="M225 75h90v20h-90z"/>
  <text y="832.253" x="25.946" style="text-align:start;line-height:123.00000191%;-inkscape-font-specification:Myriad Pro" font-size="14" font-weight="400" letter-spacing="0" word-spacing="0" font-family="Myriad Pro" transform="translate(185 -687.36)">
    <tspan y="832.253" x="25.946">Serializer</tspan>
  </text>
  <path fill="none" stroke="#000" stroke-linejoin="round" d="M205 130h65v20h-65z"/>
  <text y="825.358" x="269.924" style="text-align:center;line-height:95.99999785%;-inkscape-font-specification:Myriad Pro" font-size="14" font-weight="400" letter-spacing="0" word-spacing="0" text-anchor="middle" font-family="Myriad Pro" transform="translate(40 -679.86)">
    <tspan y="825.358" x="269.924">Content</tspan><tspan y="838.798" x="269.924">Model</tspan>
  </text>
  <path fill="none" stroke="#000" stroke-linejoin="round" d="M280 130h60v35h-60z"/>
  <g>
    <text y="825.358" x="269.924" style="text-align:center;line-height:95.99999785%;-inkscape-font-specification:Myriad Pro" font-size="14" font-weight="400" letter-spacing="0" word-spacing="0" text-anchor="middle" font-family="Myriad Pro" transform="translate(40 -639.86)">
      <tspan y="825.358" x="269.924">Content</tspan><tspan y="838.798" x="269.924">Model</tspan>
    </text>
    <path fill="none" stroke="#000" stroke-linejoin="round" d="M280 170h60v35h-60z"/>
  </g>
  <g>
    <text y="832.253" x="25.946" style="text-align:start;line-height:123.00000191%;-inkscape-font-specification:Myriad Pro" font-size="14" font-weight="400" letter-spacing="0" word-spacing="0" font-family="Myriad Pro" transform="translate(185 -662.36)">
      <tspan y="832.253" x="25.946">Serializer</tspan>
    </text>
    <path fill="none" stroke="#000" stroke-linejoin="round" d="M205 155h65v20h-65z"/>
  </g>
  <g>
    <text y="832.253" x="25.946" style="text-align:start;line-height:123.00000191%;-inkscape-font-specification:Myriad Pro" font-size="14" font-weight="400" letter-spacing="0" word-spacing="0" font-family="Myriad Pro" transform="translate(185 -637.36)">
      <tspan y="832.253" x="25.946">Serializer</tspan>
    </text>
    <path fill="none" stroke="#000" stroke-linejoin="round" d="M205 180h65v20h-65z"/>
  </g>
  <g>
    <text y="825.358" x="269.924" style="text-align:center;line-height:95.99999785%;-inkscape-font-specification:Myriad Pro" font-size="14" font-weight="400" letter-spacing="0" word-spacing="0" text-anchor="middle" font-family="Myriad Pro" transform="translate(40 -599.86)">
      <tspan y="825.358" x="269.924">Content</tspan><tspan y="838.798" x="269.924">Model</tspan>
    </text>
    <path fill="none" stroke="#000" stroke-linejoin="round" d="M280 210h60v35h-60z"/>
  </g>
  <g>
    <text y="825.358" x="269.924" style="text-align:center;line-height:95.99999785%;-inkscape-font-specification:Myriad Pro" font-size="14" font-weight="400" letter-spacing="0" word-spacing="0" text-anchor="middle" font-family="Myriad Pro" transform="translate(40 -559.86)">
      <tspan y="825.358" x="269.924">Content</tspan><tspan y="838.798" x="269.924">Model</tspan>
    </text>
    <path fill="none" stroke="#000" stroke-linejoin="round" d="M280 250h60v35h-60z"/>
  </g>
  <path fill="none" stroke="#000" stroke-linejoin="round" stroke-dasharray="1,1" d="M195 15h155v280H195z"/>
  <g>
    <path fill="none" stroke="#000" stroke-linejoin="round" d="M405 25h90v20h-90z"/>
    <text y="647.36" x="25" style="text-align:start;line-height:123.00000191%;-inkscape-font-specification:Myriad Pro" font-size="14" font-weight="400" letter-spacing="0" word-spacing="0" font-family="Myriad Pro" transform="translate(385 -607.36)">
      <tspan y="647.36" x="25">Blacklight</tspan>
    </text>
    <text y="672.36" x="25" style="text-align:start;line-height:123.00000191%;-inkscape-font-specification:Myriad Pro" font-size="14" font-weight="400" letter-spacing="0" word-spacing="0" font-family="Myriad Pro" transform="translate(385 -607.36)">
      <tspan y="672.36" x="25">Om</tspan>
    </text>
    <path fill="none" stroke="#000" stroke-linejoin="round" d="M405 50h90v20h-90z"/>
    <text y="722.36" x="25" style="text-align:start;line-height:123.00000191%;-inkscape-font-specification:Myriad Pro" font-size="14" font-weight="400" letter-spacing="0" word-spacing="0" font-family="Myriad Pro" transform="translate(385 -607.36)">
      <tspan y="722.36" x="25">Rubydora</tspan>
    </text>
    <path fill="none" stroke="#000" stroke-linejoin="round" d="M405 100h90v20h-90z"/>
    <text y="697.36" x="25" style="text-align:start;line-height:123.00000191%;-inkscape-font-specification:Myriad Pro" font-size="14" font-weight="400" letter-spacing="0" word-spacing="0" font-family="Myriad Pro" transform="translate(385 -607.36)">
      <tspan y="697.36" x="25">ActiveFedora</tspan>
    </text>
    <path fill="none" stroke="#000" stroke-linejoin="round" d="M405 75h90v20h-90z"/>
    <text y="832.253" x="25.946" style="text-align:start;line-height:123.00000191%;-inkscape-font-specification:Myriad Pro" font-size="14" font-weight="400" letter-spacing="0" word-spacing="0" font-family="Myriad Pro" transform="translate(365 -687.36)">
      <tspan y="832.253" x="25.946">Serializer</tspan>
    </text>
    <path fill="none" stroke="#000" stroke-linejoin="round" d="M385 130h65v20h-65z"/>
    <g>
      <text y="825.358" x="269.924" style="text-align:center;line-height:95.99999785%;-inkscape-font-specification:Myriad Pro" font-size="14" font-weight="400" letter-spacing="0" word-spacing="0" text-anchor="middle" font-family="Myriad Pro" transform="translate(220 -679.86)">
        <tspan y="825.358" x="269.924">Content</tspan><tspan y="838.798" x="269.924">Model</tspan>
      </text>
      <path fill="none" stroke="#000" stroke-linejoin="round" d="M460 130h60v35h-60z"/>
    </g>
    <g>
      <text y="825.358" x="269.924" style="text-align:center;line-height:95.99999785%;-inkscape-font-specification:Myriad Pro" font-size="14" font-weight="400" letter-spacing="0" word-spacing="0" text-anchor="middle" font-family="Myriad Pro" transform="translate(220 -639.86)">
        <tspan y="825.358" x="269.924">Content</tspan><tspan y="838.798" x="269.924">Model</tspan>
      </text>
      <path fill="none" stroke="#000" stroke-linejoin="round" d="M460 170h60v35h-60z"/>
    </g>
    <g>
      <text y="832.253" x="25.946" style="text-align:start;line-height:123.00000191%;-inkscape-font-specification:Myriad Pro" font-size="14" font-weight="400" letter-spacing="0" word-spacing="0" font-family="Myriad Pro" transform="translate(365 -662.36)">
        <tspan y="832.253" x="25.946">Serializer</tspan>
      </text>
      <path fill="none" stroke="#000" stroke-linejoin="round" d="M385 155h65v20h-65z"/>
    </g>
    <g>
      <text y="825.358" x="269.924" style="text-align:center;line-height:95.99999785%;-inkscape-font-specification:Myriad Pro" font-size="14" font-weight="400" letter-spacing="0" word-spacing="0" text-anchor="middle" font-family="Myriad Pro" transform="translate(220 -599.86)">
        <tspan y="825.358" x="269.924">Content</tspan><tspan y="838.798" x="269.924">Model</tspan>
      </text>
      <path fill="none" stroke="#000" stroke-linejoin="round" d="M460 210h60v35h-60z"/>
    </g>
    <path fill="none" stroke="#000" stroke-width=".979" stroke-linejoin="round" stroke-dasharray=".97947999,.97947999" d="M375 15h155v240H375z"/>
  </g>
  <g>
    <text y="813.248" x="250.354" style="text-align:start;line-height:123.00000191%;-inkscape-font-specification:Myriad Pro" font-size="24" font-weight="400" letter-spacing="0" word-spacing="0" font-family="Myriad Pro" transform="translate(-125 -404.86)">
      <tspan y="813.248" x="250.354">Solr</tspan>
    </text>
    <path fill="none" stroke="#000" stroke-linejoin="round" d="M100 355h90v90h-90z"/>
  </g>
  <g>
    <text y="817.442" x="218.023" style="text-align:start;line-height:123.00000191%;-inkscape-font-specification:Myriad Pro" font-size="36" font-weight="400" letter-spacing="0" word-spacing="0" font-family="Myriad Pro" transform="translate(40 -384.86)">
      <tspan y="817.442" x="218.023">Fedora</tspan>
    </text>
    <path fill="none" stroke="#000" stroke-linejoin="round" d="M200 355h220v130H200z"/>
  </g>
  <path d="M115 220s0 105 60 105c30 0 40.004 1.075 49.621 5.884C233.485 336.389 240 350 240 350" fill="none" stroke="#000" stroke-width="2"/>
  <path d="M140 350s-5-40 25-40 30 5 55-10M270 300c-5 10-10 20-5 30s20 20 20 20" fill="none" stroke="#000" stroke-width="2"/>
  <path d="M410 260s0 60-50 65-125 0-170-5c-30-5-34.568 7.162-30 30M425 370c35.271-23.515 39.542-40.935 25-60-14.542-19.065-10-30 0-50M45 225s18.365 33.365 40 55c25 25 25 70 25 70" fill="none" stroke="#000" stroke-width="2"/>
  <path d="M41.99 220.962l4.487 14.94s.648-2.96 2.452-4.116c1.804-1.157 4.764-.51 4.764-.51zM110.996 353.304l1.802-15.496s-1.768 2.461-3.883 2.808c-2.114.347-4.576-1.42-4.576-1.42zM114.495 216.803l-3.266 15.254s1.993-2.282 4.131-2.426c2.138-.144 4.42 1.85 4.42 1.85zM410.67 256.459l-5.609 14.556s2.326-1.942 4.46-1.75c2.134.19 4.077 2.517 4.077 2.517zM271.198 296.334l-9.9 12.056s2.819-1.113 4.785-.26c1.966.852 3.079 3.67 3.079 3.67zM288.483 352.711l-8.81-12.874s.282 3.017-1.086 4.667-4.385 1.93-4.385 1.93zM241.736 353.324l-4.08-15.057s-.727 2.942-2.562 4.049c-1.835 1.107-4.777.38-4.777.38zM160.74 353.49l2.045-15.465s-1.806 2.433-3.926 2.747c-2.12.314-4.553-1.493-4.553-1.493zM223.925 297.986l-15.132 3.793s2.928.783 4 2.639c1.071 1.855.288 4.782.288 4.782zM140.966 352.795l2.318-15.427s-1.85 2.4-3.974 2.677c-2.125.276-4.526-1.573-4.526-1.573zM451.055 257.501l-10.272 11.742s2.852-1.025 4.79-.111c1.939.913 2.963 3.765 2.963 3.765zM423.156 371.465l14.729-5.142s-2.986-.516-4.221-2.267c-1.235-1.752-.719-4.738-.719-4.738z" stroke="#000" stroke-width=".429"/>
</svg>
