<svg xmlns="http://www.w3.org/2000/svg" viewBox="0 0 512 512"><defs><style>.cls-1{fill:#111;}</style></defs><title>DBH</title><rect width="100%" height="100%" fill="#fffff8"/><path class="cls-1" d="M46,195.42c.13-1.82.64-2.83,1.54-3l1.35-.36q39.21-1.55,58.12-1.65,19.41,0,32.06,3.29a69.38,69.38,0,0,1,23.17,10.83q23.94,17.21,23.94,47.85A66.6,66.6,0,0,1,172.58,293a64.51,64.51,0,0,1-35.08,24.36q-14.48,4.17-39,4.16L51,321.69q-3.78,0-4.36-1.74a7.59,7.59,0,0,1-.67-2.8,3.06,3.06,0,0,1,2.22-3c.9-.13,2.23-.22,4-.29s2.86-.09,3.38-.09a21.25,21.25,0,0,0,3.14-.58,19.76,19.76,0,0,0,2.51-.87,4.51,4.51,0,0,0,1.89-1.6c.52-.74.93-1.3,1.26-1.69a5.8,5.8,0,0,0,.87-2.18c.25-1.06.45-1.79.58-2.17a13.6,13.6,0,0,0,.34-2.56c.09-1.32.14-2.15.14-2.47V218.92q0-13.24-2.5-16.82t-14.53-3.58H47.49c-1,0-1.54-.88-1.54-2.64ZM85.49,300.68q0,7.76,3.09,11.05T100.94,315q29.44,0,46.64-14.6t17.19-44.86a67.22,67.22,0,0,0-5.41-27.15,49.27,49.27,0,0,0-15-19.77,47.94,47.94,0,0,0-13.32-7.58q-6.76-2.43-18.45-3.6-6.56-.57-13.81-.58c-2.89,0-5.89.07-9,.19q-4.33.39-4.34,4.17Z"/><path class="cls-1" d="M191.78,318.59c0-2,.45-3.08,1.36-3.37,2.51-.39,4.09-.46,4.74-.2q12.85,0,15.85-3.07t3-16.8V218.88q0-14.61-2.56-17.48t-14.65-2.88H195c-1,0-1.5-1-1.41-3.14s.57-3.21,1.41-3.33l1.74-.2q14.88-1.54,56.79-1.64,12.39,0,18,1.11a62.47,62.47,0,0,1,13.12,4.47,31.38,31.38,0,0,1,12.73,10.54,25.4,25.4,0,0,1,4.74,14.86,23.85,23.85,0,0,1-5.39,15.28,31.29,31.29,0,0,1-14.43,9.93c-1,.4-.91.92.38,1.57l4,2.06Q309.16,261,309.15,281.8a38.22,38.22,0,0,1-8.73,24.46,36.24,36.24,0,0,1-21.64,13.52,118.25,118.25,0,0,1-22.12,2c-1.55,0-3.1,0-4.64-.09q-15.68-.26-30.36-.26t-28.33.26C192.3,321.59,191.78,320.55,191.78,318.59ZM236,240.69a4.35,4.35,0,0,0,.58,2.31,4.09,4.09,0,0,0,1.06,1.3,1.51,1.51,0,0,0,.68.34c.9,0,2.9.07,6,.19h7c1.68-.06,3.8-.19,6.38-.38a50.16,50.16,0,0,0,6.92-1,29.93,29.93,0,0,0,5.65-1.84q10.55-4.37,10.54-19.28,0-12.56-8.8-20a29.79,29.79,0,0,0-16-6q-4-.39-7.64-.39a58.3,58.3,0,0,0-9.67.77q-2.8.58-2.7,3.18Zm0,45.8a96.65,96.65,0,0,0,1,15.93q2.23,11.83,21.56,11.83,12.86,0,21.08-9t8.22-22.19a31.47,31.47,0,0,0-4.06-15.63A30.46,30.46,0,0,0,272.61,256a37.39,37.39,0,0,0-6.09-2.88,25.89,25.89,0,0,0-6.77-1.42q-3.48-.28-5.8-.39h-7c-3.09.07-5.32.1-6.67.1q-4.35.78-4.35,3.81Z"/><path class="cls-1" d="M318.62,320.15a8.19,8.19,0,0,1-.49-2.61,3.51,3.51,0,0,1,1.46-3,37.18,37.18,0,0,1,5.05-.19q7-.39,9.58-3.14t2.57-9.89v-88.9q0-7.72-2.9-10.52t-10.63-3.18c-.52-.27-.87-.95-1.07-2.05a6.81,6.81,0,0,1,.1-3c.26-.93.71-1.4,1.35-1.4q12.67.6,24.56.6t23.13-.6a3.71,3.71,0,0,1,1.93.8c.65.66.74,2.16.29,4.48-.13.67-.93,1.06-2.42,1.2q-8.52,0-11.81,3.17T356,212.35v35.89a3,3,0,0,0,.92,2,3.42,3.42,0,0,0,2.66,1q13,.3,28.32.29t33-.29a9.37,9.37,0,0,0,3.72-1c1.45-.64,2.18-1.37,2.18-2.2v-35.7q0-7.31-3.24-10.46t-12-3.17h-4a2.32,2.32,0,0,1-1.93-2.59,9.56,9.56,0,0,1,.48-2.68c.52-1.19,1.71-1.79,3.58-1.79,1.42-.06,3.13-.1,5.13-.1q7.41,0,20.44.39t19.7.39c1.8,0,3.22,0,4.25-.1a2.55,2.55,0,0,1,2.76,1.94,4.09,4.09,0,0,1-.14,3.74c-.26.66-1.2,1-2.81,1q-7.35.57-10.1,3.46t-2.95,10q-.39,13.34-.39,30.44t.2,35.24q.18,18.15.19,23.26,0,7.15,3.32,10.11t11.91,3q3.81.09,4.39,1.64a4.22,4.22,0,0,1,.39,1.74,6.22,6.22,0,0,1-.29,1.84,2.52,2.52,0,0,1-2.51,1.93h-56.2q-2.43,0-2.61-1.74a5,5,0,0,1,.09-3.48,2.38,2.38,0,0,1,2.33-1.74h4.74q8.13,0,11.67-3t3.53-10.3v-37q-.39-3.58-3.68-3.58-13.94.58-29.87.58t-33.64-.58a3.54,3.54,0,0,0-2.27,1.4,5.12,5.12,0,0,0-1.31,3.63v35.57q0,7.74,2.9,10.4t11.24,2.66h1.93c.9-.13,1.63.37,2.18,1.5a4.68,4.68,0,0,1,.24,3.57,2.68,2.68,0,0,1-2.42,2.08H321.81C320.07,321.5,319,321.05,318.62,320.15Z"/></svg>
