<svg id="rum-guide-stamp" xmlns="http://www.w3.org/2000/svg" viewBox="0 0 395.05 395.05">
  <defs><style>.a,.f{fill:#231f20}.b{fill:none;stroke-width:3px}.e{fill:none;stroke-width:2px}.b,.e,.f{stroke:#231f20;stroke-linecap:round;stroke-miterlimit:10}</style></defs>
  <path class="a" d="M61.18 227.06l-39.59 3.7-1.26-13.47c-.37-4-.46-10.67 4-16.24 4-5.05 9.63-6.47 13.91-6.87 5.22-.49 10 .39 14.19 3.88a21.63 21.63 0 0 1 7.42 14.63zm-9.65-9.45l-.2-2.08c-.23-2.49-.8-6-3.66-8.4-1.37-1.19-4-2.68-8.41-2.27-3.68.35-6.72 1.77-8.38 3.9-2 2.65-2 5.87-1.73 8.43l.24 2.49zM56 164.23l-2.58 14.2 6.11 3.83-2 10.73-36.36-22.12 2-11.09 41.79-7.61-2 10.85zm-8.23 1.3l-13.47 2.1 11.89 6.58zM66.11 149.42l-35-18.84 4.87-9.05 30.43-5.22-21.42-11.55 4.89-9.08 35 18.84L80 123.6l-30.42 5.22 21.41 11.52zM62.31 81.4l5.92-6.78 6.8 18.84-4 4.62zM91.13 90.73a13.9 13.9 0 0 0 9.54-2.93 5.2 5.2 0 0 0 2.11-3.65 3.51 3.51 0 0 0-.88-2.55 3.15 3.15 0 0 0-2.37-1.07c-1.35 0-2.79.7-5.23 1.79l-2.57 1.13a13 13 0 0 1-6.43 1.33 10 10 0 0 1-6.32-3.82 13 13 0 0 1-3.55-9.62c.2-2.86 1.58-6.36 5.22-9.52a27.93 27.93 0 0 1 11.38-5.63l2.17 8.77c-3.94.19-5.85 1.53-6.88 2.43a4.92 4.92 0 0 0-1.79 3.14 2.91 2.91 0 0 0 .64 2.28 2.65 2.65 0 0 0 1.58 1c.46.07 1.46.15 3.78-.92l3-1.36c2.39-1.06 5-2.1 8-1.76a9.37 9.37 0 0 1 6.58 3.66 13.48 13.48 0 0 1 3.74 10c-.34 4.79-3 8-6.2 10.76a21.32 21.32 0 0 1-6.75 4.13 28.12 28.12 0 0 1-6.61 1.57zM135.14 30.53c2.79-1.06 6.51-2 10.33-.2a13.06 13.06 0 0 1 6.37 7.13 11.46 11.46 0 0 1 0 8.86 11.09 11.09 0 0 1-4.14 4.52l17.49 10.69-12 4.59-14.66-10.68L144 69.68l-9.62 3.7-14.25-37.1zm1 18.7l1.83-.7a7.77 7.77 0 0 0 4.1-3.3 5 5 0 0 0 0-3.58 4.69 4.69 0 0 0-2.48-2.62 7 7 0 0 0-5.17.32l-1.84.71zM175.03 20.53l2 23.45c.14 1.66.42 4.21 2.55 5.93a7.43 7.43 0 0 0 5 1.48 7.51 7.51 0 0 0 4.6-2.13c2.19-2.29 1.88-5.19 1.69-7.39l-2-22.55 10.27-.89 2 22.73c.36 4.16.56 8.51-3.34 13.21-3 3.67-7 5.57-12.63 6.06-6.23.54-10.87-1.21-13.53-3.61-3.76-3.44-4.62-8.45-5-12.67l-2-22.73zM207.61 57.16l16.3-36.85 9.87 2.5 2.58 22.53 13.47-18.45 10 2.53-4 40-10-2.53L248.62 44l-14.91 19.78-4-1-3.27-24.42-8.91 21.32zM301.12 74.24l15.71 13.17c-5.05 6-9.89 9.29-16.37 9.6-5.69.29-10.07-1.91-13.95-5.16-5.48-4.6-7.54-9.74-7.9-14.32a20 20 0 0 1 4.85-14.68 20.68 20.68 0 0 1 14.13-7.59c4.62-.4 10.19.92 15.58 5.44a21.29 21.29 0 0 1 6.5 9 19.51 19.51 0 0 1 .19 10.81l-10.14-3.21a9.72 9.72 0 0 0 .37-4.9 8.3 8.3 0 0 0-3-5.07 9.58 9.58 0 0 0-7-2.26 13.42 13.42 0 0 0-8.5 4.76 12.44 12.44 0 0 0-3.1 8.61 9.39 9.39 0 0 0 3.62 7 8.51 8.51 0 0 0 5.57 2.26 7.07 7.07 0 0 0 4.71-1.81l-6.49-5.44zM344.35 96.2l-19.88 12.61c-1.41.9-3.54 2.32-4.09 5a7.31 7.31 0 0 0 5 8.25c3 .89 5.47-.72 7.33-1.9l19.12-12.13 5.52 8.7-19.27 12.23c-3.52 2.23-7.29 4.41-13.26 3.12-4.66-1-8.2-3.69-11.2-8.42-3.35-5.28-3.93-10.2-3-13.67 1.32-4.93 5.37-8 8.94-10.26l19.26-12.2zM366.79 141.33l-37.33 13.62-3.53-9.69 37.33-13.61zM332.42 161.89l39.35-5.49 1.87 13.39c.55 4 .94 10.63-3.25 16.39-3.78 5.22-9.32 6.9-13.57 7.49-5.19.72-10 .07-14.34-3.23a21.57 21.57 0 0 1-8.07-14.27zm10.1 9l.29 2.07c.34 2.48 1.06 5.93 4 8.22 1.42 1.12 4.14 2.49 8.5 1.88 3.66-.51 6.63-2.07 8.19-4.27 1.9-2.73 1.69-5.95 1.34-8.49l-.35-2.48zM364.78 227.61l1.29-12.21-6.58-.69-1.22 11.55-8.71-.92 1.22-11.55-6.81-.72-1.29 12.2-8.71-.92 2.37-22.45 39.52 4.17-2.33 22.46zM44.75 251.99a4 4 0 0 1 2.27-2.19 4.16 4.16 0 0 1 3.18.15 4 4 0 0 1 2 2.17 3.72 3.72 0 0 1 0 2.87 4 4 0 0 1-2.31 2.28 3.91 3.91 0 0 1-3-.1 4 4 0 0 1-2.11-2.23 3.92 3.92 0 0 1-.03-2.95zM44.69 273.9l18.63-10.58 3.6 6.34c1.06 1.87 2.61 5.15 1.61 8.87a10.51 10.51 0 0 1-5.32 6.46 9.91 9.91 0 0 1-7.83 1.23 11.66 11.66 0 0 1-6.85-5.56zm6.85 2.5l.56 1a6.39 6.39 0 0 0 3.65 3.32 5.87 5.87 0 0 0 4.64-.75 6.43 6.43 0 0 0 3.25-3.77 6.25 6.25 0 0 0-1-4.52l-.68-1.15zM67.8 302.73l-4.77-6.15-3.73 1.06-3.61-4.65 22-6.63 3.73 4.8-12 19.52-3.64-4.7zm2.44-3.77l4-6.16-6.92 2.4zM73.23 314.86l14.66-15.67 4.06 3.8-1.42 16.59 9-9.58 4.06 3.8-14.74 15.67-4.06-3.8 1.47-16.6-9 9.59zM107.01 326.08l6.69 4.48 4.45-6.66 4.65 3.11-11.93 17.82-4.65-3.11 4.83-7.21-6.68-4.47-4.84 7.21-4.62-3.09 11.92-17.82 4.63 3.09zM136.26 354.13a12.82 12.82 0 0 1-15.41-7 11.22 11.22 0 0 1 6.6-14.62 12.82 12.82 0 0 1 15.41 7 11.22 11.22 0 0 1-6.6 14.62zm-6.67-16.31a5.89 5.89 0 0 0-3.29 3.13 5.49 5.49 0 0 0-.09 4.34 6.12 6.12 0 0 0 3.26 3.34 5.82 5.82 0 0 0 7.89-2.79 5.77 5.77 0 0 0 .11-4.46 6.41 6.41 0 0 0-3.23-3.33 6.17 6.17 0 0 0-4.65-.23zM158.62 341.53a6.93 6.93 0 0 1 4.55 3.22 7.06 7.06 0 0 1 .49 5.14 6.19 6.19 0 0 1-2.83 3.86 6 6 0 0 1-3.25.64l4.15 10.25-6.66-1.83-3-9.36-2.18 7.94-5.36-1.47 5.7-20.68zm-5.56 8.44l1 .29a4.21 4.21 0 0 0 2.84-.12 2.69 2.69 0 0 0 1.16-1.55 2.54 2.54 0 0 0-.24-1.94 3.76 3.76 0 0 0-2.35-1.51l-1-.28zM169.1 359.34a7.52 7.52 0 0 0 4.57 2.85 2.84 2.84 0 0 0 2.23-.44 1.94 1.94 0 0 0 .73-1.26 1.68 1.68 0 0 0-.43-1.36 7.65 7.65 0 0 0-2.58-1.49l-1.37-.65a6.92 6.92 0 0 1-2.81-2.15 5.38 5.38 0 0 1-.69-3.92 7 7 0 0 1 2.66-4.85 7.51 7.51 0 0 1 5.72-1.24 14.94 14.94 0 0 1 6.31 2.63l-2.79 4a5.63 5.63 0 0 0-3.43-1.94 2.65 2.65 0 0 0-1.9.38 1.6 1.6 0 0 0-.7 1.07 1.43 1.43 0 0 0 .15 1 3.5 3.5 0 0 0 1.71 1.21l1.62.74a8.26 8.26 0 0 1 3.56 2.64 5.1 5.1 0 0 1 .84 4 7.33 7.33 0 0 1-2.76 5.07c-2.06 1.56-4.31 1.6-6.57 1.29a11.6 11.6 0 0 1-4.07-1.29 15.21 15.21 0 0 1-3-2.13zM196.01 351.42l-.48 16.71-5.56-.15.45-16.71-4.56-.12.12-4.72 14.68.39-.13 4.71zM204.64 367.6a3.35 3.35 0 0 1 2-5.81 3.37 3.37 0 0 1 2.43.89 3.33 3.33 0 0 1 .22 4.66 3.25 3.25 0 0 1-4.69.26zM231.53 364.35a13.29 13.29 0 0 1-4.6 1.78 11.66 11.66 0 0 1-8.68-1.93 11.25 11.25 0 0 1-4.39-7.23 11.45 11.45 0 0 1 2-8.31 11.33 11.33 0 0 1 7.5-4.52 13.21 13.21 0 0 1 5.12.32l1 6.58a6 6 0 0 0-5.15-1.59 5.41 5.41 0 0 0-3.6 2 5.71 5.71 0 0 0 5.33 9.36 6.26 6.26 0 0 0 4.46-2.95zM255.66 355.3a12.85 12.85 0 0 1-16.13 5.05 11.22 11.22 0 0 1-4.79-15.33 12.85 12.85 0 0 1 16.15-5.05 11.23 11.23 0 0 1 4.79 15.33zm-15.84-7.77a5.88 5.88 0 0 0-.37 4.53 5.45 5.45 0 0 0 2.82 3.3 6 6 0 0 0 4.65.33 5.82 5.82 0 0 0 4.05-7.33 5.77 5.77 0 0 0-2.89-3.41 6.42 6.42 0 0 0-4.62-.34 6.17 6.17 0 0 0-3.64 2.92zM264.91 354.87l-6.76-20.66 4.87-2.55 9.16 8.1-1.26-12.23 4.92-2.59 12.82 17.48-4.92 2.58-7.13-10.18 1.16 13.32-2 1-10.09-8.61 4.12 11.77zM288.08 313.61l3.4-2.48 4.12 33.53-3.38 2.47zM300.18 305.71a6.92 6.92 0 0 1 5.12-2.2 7 7 0 0 1 4.64 2.26 6.2 6.2 0 0 1 1.82 4.42 6 6 0 0 1-1.15 3.11l10.92 1.79-5 4.74-9.57-2.3 5.63 6-4.05 3.8-14.69-15.63zm4.31 9.15l.77-.73a4.17 4.17 0 0 0 1.38-2.48 2.68 2.68 0 0 0-.72-1.8 2.48 2.48 0 0 0-1.77-.8 3.76 3.76 0 0 0-2.52 1.21l-.77.73zM311.79 293.53l9.92 7.93a4.4 4.4 0 0 0 3.27 1.21 4.1 4.1 0 0 0 2.45-1.42 4 4 0 0 0 .87-2.59c-.07-1.71-1.33-2.67-2.25-3.41l-9.52-7.67 3.46-4.34 9.62 7.68c1.76 1.4 3.53 2.94 3.92 6.21a9.22 9.22 0 0 1-2.33 7.19c-2.1 2.64-4.51 3.8-6.44 3.95-2.74.19-5-1.34-6.8-2.76l-9.62-7.68zM340.84 291.07l-17.06-13.49 2.65-4.82 12.12 1.7-7.82-9.54 2.67-4.87 20.35 7.48-2.68 4.87-11.54-4.54 8.34 10.47-1.07 1.95-13.27-1.6 10 7.55zM350.53 251.3a4 4 0 0 1-3.14.27 4.11 4.11 0 0 1-2.38-2.11 4 4 0 0 1-.18-2.94 3.75 3.75 0 0 1 1.85-2.19 4 4 0 0 1 3.23-.32 3.91 3.91 0 0 1 2.29 2 4 4 0 0 1 .23 3.06 3.92 3.92 0 0 1-1.9 2.23z"/>
  <circle class="b" cx="197.53" cy="197.53" r="196.03" stroke-dasharray="0 5.01"/>
  <circle class="b" cx="197.53" cy="197.53" r="123.36" stroke-dasharray="0 5"/>
  <path class="a" d="M191.85 238.53c.43-6.32 18.81-8 22.39-8.51 1-10.12 5.12-48 4.14-58.25-1.8-18.86-15.19-26.76-21.56-29.58a9.45 9.45 0 0 0-4.89-.76c-4.81.53-14.11 1.48-20.38 1.48-6.25 0-15.51-.94-20.33-1.48a9.5 9.5 0 0 0-5 .82c-6.58 3-20.6 11.54-21.5 29.52-.15 3 7.22 98.78 7.69 104.44.24 2.81 2.31 4 3.68 5 6.63 4.49 26.56 6.23 35.86 6.09 3.83-.06 12-.59 16-1.14 6.33-.87 13.19-2.44 13.19-2.44s-10-42.29-9.3-45.16m-32.86-27.36l-6.23-.62-3.56-6.86-5.1 6-6.19-.63 8.8-9.78-5.42-9.85 6.34.63 2.42 5.43 3.57-4.83 6.32.64-7.36 8.57zm16.64-.06l-4.27-6.45-4.43 6.49h-6.23l7.73-10.65-6.42-9.23h6.38l3 5.14 3-5.18h6.35l-6.42 9.3 7.57 10.58zm22.64-1.29l-4.79-6-3.86 6.68-6.19.56 6.78-11.25-7.18-8.65 6.35-.57 3.4 4.86 2.59-5.4 6.32-.57-5.61 9.8 8.46 9.92z"/>
  <path class="e" d="M262.23 238.07l-11.56 55.69c0 3.21-10.57 5.82-23.61 5.82s-23.61-2.61-23.61-5.82l-11.57-55.69"/>
  <path class="f" d="M227.06 266.58c-10.48 0-19.54-1.49-23.88-3.66l5.44 25.69c0 2.51 8.26 4.55 18.44 4.55s18.44-2 18.44-4.55l5.44-25.69c-4.34 2.17-13.41 3.66-23.88 3.66z"/>
  <ellipse class="f" cx="227.06" cy="259.27" rx="24.37" ry="5.07"/>
  <ellipse class="e" cx="227.06" cy="238.06" rx="35.17" ry="8.67"/>
  <path class="a" d="M171.71 141.72c9.32-.3 21.2-1.59 21.2-1.59s-1.31-4.87-2.26-5.6-1-.9-1-.9-14 1.18-18.09 1.18-18.09-1.18-18.09-1.18-.07.17-1 .9-2.25 5.6-2.25 5.6 11.87 1.29 21.2 1.59M171.53 133.26c1.89.1 13.67-.51 16.84-1-1.26-1.29-2.77-2.7-2.95-4.8.06-4.79 0-20.14 0-20.14s-12.76.33-13.89.29c-1.13 0-13.89-.29-13.89-.29s-.06 15.35 0 20.14c-.18 2.1-1.69 3.51-2.95 4.8 3.16.54 14.95 1.15 16.84 1M186.86 87.8c0-1.36-1.53-1.57-2.33-1.64s-11.51-.44-13.05-.44c-1.54 0-12.26.37-13.06.44s-2.33.28-2.33 1.64v17.63c0 .34.34.34.56.37 1.2.14 14.74.36 14.82.36.08 0 13.61-.22 14.82-.36.22 0 .56 0 .56-.37z"/>
</svg>
