<svg xmlns="http://www.w3.org/2000/svg" width="60.564" height="44.236">
<path fill="#333" d="M11 40.906h38.586c3.588 0 5.5-1.955 5.5-5.521V8.852c0-3.567-1.912-5.522-5.5-5.522H11c-3.61 0-5.521 1.912-5.521 5.522v26.533c0 3.61 1.912 5.521 5.521 5.521Zm-4.469-5.564V8.895c0-2.987 1.547-4.512 4.512-4.512h38.478c2.858 0 4.512 1.525 4.512 4.512V35.47L40.993 23.59c-1.182-.86-2.15-1.504-3.546-1.504-1.332 0-2.299.494-3.416 1.482l-9.904 8.83-4.168-3.931c-.902-.838-1.783-1.31-2.922-1.31-1.139 0-1.89.472-2.814 1.288L6.53 35.75v-.408Zm14.33-12.783c2.75 0 5.028-2.278 5.028-5.07 0-2.772-2.278-5.071-5.028-5.071-2.814 0-5.091 2.299-5.091 5.07 0 2.793 2.277 5.07 5.091 5.07Z"/>
</svg>
